<svg width="29" height="31" viewBox="0 0 29 29" fill="none" xmlns="http://www.w3.org/2000/svg">
<path d="M25.5556 6.61108H3.44446C2.61603 6.61108 1.94446 7.28266 1.94446 8.11108V20.8889C1.94446 21.7173 2.61603 22.3889 3.44446 22.3889H25.5556C26.384 22.3889 27.0556 21.7173 27.0556 20.8889V8.11108C27.0556 7.28266 26.384 6.61108 25.5556 6.61108Z" fill="white" stroke="white"/>
<path d="M2.44446 7.11108H26.5556V9.05553H2.44446V7.11108ZM2.44446 10.6111H26.5556V12.1666H2.44446V10.6111ZM2.44446 13.7222H26.5556V15.2778H2.44446V13.7222ZM2.44446 16.8333H26.5556V18.3889H2.44446V16.8333ZM2.44446 19.9444H26.5556V21.8889H2.44446V19.9444Z" fill="#CD0001"/>
<path d="M2.44446 7.11108H13.7222V15.2778H2.44446V7.11108Z" fill="#000066"/>
<path d="M5.88417 11.1944C5.90957 10.6267 6.1342 10.0861 6.5186 9.66755C6.90301 9.24901 7.4226 8.9793 7.98611 8.90581C7.8196 8.87628 7.65083 8.86132 7.48172 8.86108C6.04206 8.86108 4.875 9.90564 4.875 11.1944C4.875 12.4832 6.04167 13.5278 7.48172 13.5278C7.65083 13.5275 7.8196 13.5126 7.98611 13.483C7.4226 13.4095 6.90301 13.1398 6.5186 12.7213C6.1342 12.3027 5.90957 11.7621 5.88417 11.1944Z" fill="#FFCC00"/>
<path fill-rule="evenodd" clip-rule="evenodd" d="M4.68054 11.1944C4.68054 9.77853 5.95548 8.66663 7.48171 8.66663H7.48197C7.66238 8.66687 7.84242 8.68284 8.02005 8.71433C8.11455 8.73109 8.18269 8.81429 8.18049 8.91025C8.17829 9.0062 8.10642 9.08619 8.01125 9.0986C7.49307 9.16619 7.01528 9.4142 6.6618 9.79907C6.31028 10.1818 6.10406 10.6755 6.07881 11.1944C6.10406 11.7133 6.31028 12.207 6.6618 12.5897C7.01528 12.9746 7.49307 13.2226 8.01125 13.2902C8.10642 13.3026 8.17829 13.3826 8.18049 13.4786C8.18269 13.5745 8.11455 13.6577 8.02005 13.6745C7.84242 13.706 7.66238 13.7219 7.48197 13.7222H7.48171C5.95507 13.7222 4.68054 12.6103 4.68054 11.1944ZM6.85123 9.12891C5.81358 9.37657 5.06943 10.2207 5.06943 11.1944C5.06943 12.1682 5.81341 13.0123 6.8513 13.2599C6.67808 13.1446 6.51811 13.0082 6.37538 12.8528C5.96005 12.4006 5.71735 11.8165 5.6899 11.2031C5.68964 11.1973 5.68964 11.1915 5.6899 11.1857C5.71735 10.5723 5.96005 9.98822 6.37538 9.53601C6.51809 9.38063 6.67803 9.24424 6.85123 9.12891Z" fill="#FFCC00"/>
<path d="M10.0713 10.599L10.8868 9.26982L10.3225 10.7177L11.6483 9.86521L10.4956 10.9308L12.0694 10.7239L10.557 11.196L12.0671 11.6755L10.4944 11.4608L11.6413 12.5322L10.3198 11.6732L10.8771 13.1237L10.0686 11.7906L9.9251 13.3333L9.78977 11.7898L8.97427 13.119L9.53855 11.6712L8.21282 12.5237L9.36549 11.4581L7.79166 11.665L9.30405 11.1929L7.79399 10.7134L9.36666 10.928L8.21982 9.85665L9.54127 10.7157L8.98399 9.26515L9.79249 10.5983L9.93599 9.05554L10.0713 10.599Z" fill="#FFCC00"/>
<path fill-rule="evenodd" clip-rule="evenodd" d="M9.93649 8.86108C10.0371 8.86135 10.1209 8.93832 10.1297 9.03854L10.2136 9.99533L10.7211 9.16812C10.7737 9.08232 10.8831 9.05088 10.9733 9.09566C11.0635 9.14043 11.1045 9.24662 11.068 9.34042L10.7212 10.2301L11.5431 9.70164C11.6279 9.64712 11.7403 9.66645 11.802 9.74616C11.8637 9.82588 11.8543 9.93954 11.7802 10.008L11.0768 10.6582L12.0441 10.5311C12.1441 10.5179 12.2376 10.5835 12.2593 10.6821C12.281 10.7806 12.2237 10.8794 12.1274 10.9095L11.2045 11.1976L12.1259 11.4901C12.2221 11.5207 12.279 11.6197 12.2568 11.7182C12.2346 11.8167 12.1408 11.8818 12.0408 11.8681L11.074 11.7362L11.774 12.3901C11.8477 12.4589 11.8565 12.5726 11.7944 12.652C11.7323 12.7314 11.6198 12.7502 11.5353 12.6952L10.7162 12.1628L11.0586 13.054C11.0947 13.1479 11.0531 13.2539 10.9627 13.2983C10.8723 13.3426 10.763 13.3106 10.7108 13.2245L10.2077 12.3949L10.1187 13.3513C10.1094 13.4515 10.0252 13.528 9.92457 13.5277C9.82396 13.5275 9.74017 13.4505 9.73139 13.3503L9.6475 12.3935L9.13999 13.2207C9.08735 13.3065 8.97792 13.338 8.88776 13.2932C8.7976 13.2484 8.75653 13.1422 8.79308 13.0484L9.13983 12.1587L8.31797 12.6872C8.23318 12.7417 8.12077 12.7224 8.05906 12.6427C7.99734 12.563 8.00679 12.4493 8.08082 12.3809L8.78422 11.7306L7.81699 11.8578C7.71693 11.8709 7.62344 11.8053 7.60174 11.7068C7.58005 11.6082 7.63737 11.5094 7.7337 11.4794L8.65657 11.1913L7.73513 10.8987C7.63894 10.8681 7.58211 10.7691 7.60429 10.6706C7.62646 10.5722 7.72028 10.5071 7.82027 10.5207L8.78706 10.6527L8.08707 9.99873C8.01341 9.92991 8.00455 9.81621 8.06667 9.73682C8.12879 9.65743 8.24127 9.63867 8.32579 9.69362L9.14485 10.2261L8.80247 9.33487C8.76636 9.24089 8.80796 9.13489 8.89835 9.09056C8.98875 9.04623 9.09803 9.07822 9.15023 9.16431L9.6534 9.99397L9.74237 9.03752C9.75169 8.93734 9.83588 8.86082 9.93649 8.86108ZM9.93152 10.7342C9.90609 10.7602 9.87329 10.7792 9.83609 10.7877C9.79807 10.7965 9.75943 10.7934 9.7246 10.7805C9.71291 10.8136 9.69224 10.8436 9.66361 10.8668C9.63326 10.8914 9.59719 10.9056 9.56018 10.9092C9.56352 10.9435 9.55779 10.9788 9.54227 11.0115C9.52608 11.0456 9.50089 11.0732 9.47052 11.0924C9.48848 11.1222 9.49857 11.1569 9.49848 11.1933C9.49839 11.2298 9.48813 11.2645 9.47002 11.2941C9.50037 11.3135 9.52548 11.3413 9.54153 11.3755C9.55687 11.4082 9.56242 11.4436 9.55892 11.4778C9.59573 11.4817 9.63154 11.4961 9.66163 11.5207C9.69018 11.544 9.71072 11.5743 9.72224 11.6075C9.75729 11.5945 9.79616 11.5915 9.83435 11.6005C9.87154 11.6093 9.90425 11.6285 9.92955 11.6547C9.95498 11.6286 9.98777 11.6097 10.025 11.6011C10.063 11.5923 10.1016 11.5954 10.1365 11.6084C10.1482 11.5753 10.1688 11.5452 10.1975 11.522C10.2278 11.4974 10.2639 11.4832 10.3009 11.4796C10.2975 11.4453 10.3033 11.41 10.3188 11.3774C10.335 11.3433 10.3602 11.3156 10.3905 11.2964C10.3726 11.2667 10.3625 11.232 10.3626 11.1955C10.3627 11.159 10.3729 11.1244 10.391 11.0947C10.3607 11.0754 10.3356 11.0475 10.3195 11.0133C10.3042 10.9806 10.2986 10.9452 10.3021 10.911C10.2653 10.9071 10.2295 10.8928 10.1994 10.8682C10.1709 10.8448 10.1503 10.8146 10.1388 10.7814C10.1038 10.7944 10.0649 10.7973 10.0267 10.7883C9.98953 10.7795 9.95681 10.7604 9.93152 10.7342Z" fill="#FFCC00"/>
</svg>
